<?xml version="1.0" encoding="utf-8" standalone="no"?>
<svg xmlns:xlink="http://www.w3.org/1999/xlink" width="683.811042pt" height="384.192pt" viewBox="0 0 683.811042 384.192" xmlns="http://www.w3.org/2000/svg" version="1.1">
<style type="text/css"><![CDATA[
@keyframes donut-fade { from { opacity: 0; transform: scale(0.85) rotate(-12deg); } to { opacity: 1; transform: scale(1) rotate(0); } }
@keyframes wedge-pop { from { opacity: 0; } to { opacity: 1; } }
@keyframes hi-bright { 0%, 100% { opacity: 0.32; } 18%, 82% { opacity: 1; } }
@keyframes hi-bright-pct { 0%, 100% { opacity: 0.32; } 18%, 82% { opacity: 0.85; } }
@keyframes hi-bright-wedge { 0%, 100% { opacity: 0.42; } 18%, 82% { opacity: 1; } }
g[id='donut-0'] { animation: donut-fade 0.7s cubic-bezier(.34,1.2,.64,1) 0.150s both; transform-box: fill-box; transform-origin: center; }
g[id='wedge-0-0'] { animation: wedge-pop 0.35s ease-out 0.550s both, hi-bright-wedge 11.20s ease-in-out 1.470s infinite; }
#legend-0-0-sw { animation: hi-bright 11.20s ease-in-out 1.470s infinite; }
#legend-0-0-lb { animation: hi-bright 11.20s ease-in-out 1.470s infinite; }
#legend-0-0-pc { animation: hi-bright-pct 11.20s ease-in-out 1.470s infinite; }
g[id='wedge-0-1'] { animation: wedge-pop 0.35s ease-out 0.590s both, hi-bright-wedge 11.20s ease-in-out 2.870s infinite; }
#legend-0-1-sw { animation: hi-bright 11.20s ease-in-out 2.870s infinite; }
#legend-0-1-lb { animation: hi-bright 11.20s ease-in-out 2.870s infinite; }
#legend-0-1-pc { animation: hi-bright-pct 11.20s ease-in-out 2.870s infinite; }
g[id='wedge-0-2'] { animation: wedge-pop 0.35s ease-out 0.630s both, hi-bright-wedge 11.20s ease-in-out 4.270s infinite; }
#legend-0-2-sw { animation: hi-bright 11.20s ease-in-out 4.270s infinite; }
#legend-0-2-lb { animation: hi-bright 11.20s ease-in-out 4.270s infinite; }
#legend-0-2-pc { animation: hi-bright-pct 11.20s ease-in-out 4.270s infinite; }
g[id='wedge-0-3'] { animation: wedge-pop 0.35s ease-out 0.670s both, hi-bright-wedge 11.20s ease-in-out 5.670s infinite; }
#legend-0-3-sw { animation: hi-bright 11.20s ease-in-out 5.670s infinite; }
#legend-0-3-lb { animation: hi-bright 11.20s ease-in-out 5.670s infinite; }
#legend-0-3-pc { animation: hi-bright-pct 11.20s ease-in-out 5.670s infinite; }
g[id='wedge-0-4'] { animation: wedge-pop 0.35s ease-out 0.710s both, hi-bright-wedge 11.20s ease-in-out 7.070s infinite; }
#legend-0-4-sw { animation: hi-bright 11.20s ease-in-out 7.070s infinite; }
#legend-0-4-lb { animation: hi-bright 11.20s ease-in-out 7.070s infinite; }
#legend-0-4-pc { animation: hi-bright-pct 11.20s ease-in-out 7.070s infinite; }
g[id='wedge-0-5'] { animation: wedge-pop 0.35s ease-out 0.750s both, hi-bright-wedge 11.20s ease-in-out 8.470s infinite; }
#legend-0-5-sw { animation: hi-bright 11.20s ease-in-out 8.470s infinite; }
#legend-0-5-lb { animation: hi-bright 11.20s ease-in-out 8.470s infinite; }
#legend-0-5-pc { animation: hi-bright-pct 11.20s ease-in-out 8.470s infinite; }
g[id='wedge-0-6'] { animation: wedge-pop 0.35s ease-out 0.790s both, hi-bright-wedge 11.20s ease-in-out 9.870s infinite; }
#legend-0-6-sw { animation: hi-bright 11.20s ease-in-out 9.870s infinite; }
#legend-0-6-lb { animation: hi-bright 11.20s ease-in-out 9.870s infinite; }
#legend-0-6-pc { animation: hi-bright-pct 11.20s ease-in-out 9.870s infinite; }
g[id='wedge-0-7'] { animation: wedge-pop 0.35s ease-out 0.830s both, hi-bright-wedge 11.20s ease-in-out 11.270s infinite; }
#legend-0-7-sw { animation: hi-bright 11.20s ease-in-out 11.270s infinite; }
#legend-0-7-lb { animation: hi-bright 11.20s ease-in-out 11.270s infinite; }
#legend-0-7-pc { animation: hi-bright-pct 11.20s ease-in-out 11.270s infinite; }
g[id='donut-1'] { animation: donut-fade 0.7s cubic-bezier(.34,1.2,.64,1) 0.330s both; transform-box: fill-box; transform-origin: center; }
g[id='wedge-1-0'] { animation: wedge-pop 0.35s ease-out 0.730s both, hi-bright-wedge 12.60s ease-in-out 1.690s infinite; }
#legend-1-0-sw { animation: hi-bright 12.60s ease-in-out 1.690s infinite; }
#legend-1-0-lb { animation: hi-bright 12.60s ease-in-out 1.690s infinite; }
#legend-1-0-pc { animation: hi-bright-pct 12.60s ease-in-out 1.690s infinite; }
g[id='wedge-1-1'] { animation: wedge-pop 0.35s ease-out 0.770s both, hi-bright-wedge 12.60s ease-in-out 3.090s infinite; }
#legend-1-1-sw { animation: hi-bright 12.60s ease-in-out 3.090s infinite; }
#legend-1-1-lb { animation: hi-bright 12.60s ease-in-out 3.090s infinite; }
#legend-1-1-pc { animation: hi-bright-pct 12.60s ease-in-out 3.090s infinite; }
g[id='wedge-1-2'] { animation: wedge-pop 0.35s ease-out 0.810s both, hi-bright-wedge 12.60s ease-in-out 4.490s infinite; }
#legend-1-2-sw { animation: hi-bright 12.60s ease-in-out 4.490s infinite; }
#legend-1-2-lb { animation: hi-bright 12.60s ease-in-out 4.490s infinite; }
#legend-1-2-pc { animation: hi-bright-pct 12.60s ease-in-out 4.490s infinite; }
g[id='wedge-1-3'] { animation: wedge-pop 0.35s ease-out 0.850s both, hi-bright-wedge 12.60s ease-in-out 5.890s infinite; }
#legend-1-3-sw { animation: hi-bright 12.60s ease-in-out 5.890s infinite; }
#legend-1-3-lb { animation: hi-bright 12.60s ease-in-out 5.890s infinite; }
#legend-1-3-pc { animation: hi-bright-pct 12.60s ease-in-out 5.890s infinite; }
g[id='wedge-1-4'] { animation: wedge-pop 0.35s ease-out 0.890s both, hi-bright-wedge 12.60s ease-in-out 7.290s infinite; }
#legend-1-4-sw { animation: hi-bright 12.60s ease-in-out 7.290s infinite; }
#legend-1-4-lb { animation: hi-bright 12.60s ease-in-out 7.290s infinite; }
#legend-1-4-pc { animation: hi-bright-pct 12.60s ease-in-out 7.290s infinite; }
g[id='wedge-1-5'] { animation: wedge-pop 0.35s ease-out 0.930s both, hi-bright-wedge 12.60s ease-in-out 8.690s infinite; }
#legend-1-5-sw { animation: hi-bright 12.60s ease-in-out 8.690s infinite; }
#legend-1-5-lb { animation: hi-bright 12.60s ease-in-out 8.690s infinite; }
#legend-1-5-pc { animation: hi-bright-pct 12.60s ease-in-out 8.690s infinite; }
g[id='wedge-1-6'] { animation: wedge-pop 0.35s ease-out 0.970s both, hi-bright-wedge 12.60s ease-in-out 10.090s infinite; }
#legend-1-6-sw { animation: hi-bright 12.60s ease-in-out 10.090s infinite; }
#legend-1-6-lb { animation: hi-bright 12.60s ease-in-out 10.090s infinite; }
#legend-1-6-pc { animation: hi-bright-pct 12.60s ease-in-out 10.090s infinite; }
g[id='wedge-1-7'] { animation: wedge-pop 0.35s ease-out 1.010s both, hi-bright-wedge 12.60s ease-in-out 11.490s infinite; }
#legend-1-7-sw { animation: hi-bright 12.60s ease-in-out 11.490s infinite; }
#legend-1-7-lb { animation: hi-bright 12.60s ease-in-out 11.490s infinite; }
#legend-1-7-pc { animation: hi-bright-pct 12.60s ease-in-out 11.490s infinite; }
g[id='wedge-1-8'] { animation: wedge-pop 0.35s ease-out 1.050s both, hi-bright-wedge 12.60s ease-in-out 12.890s infinite; }
#legend-1-8-sw { animation: hi-bright 12.60s ease-in-out 12.890s infinite; }
#legend-1-8-lb { animation: hi-bright 12.60s ease-in-out 12.890s infinite; }
#legend-1-8-pc { animation: hi-bright-pct 12.60s ease-in-out 12.890s infinite; }
g[id='donut-2'] { animation: donut-fade 0.7s cubic-bezier(.34,1.2,.64,1) 0.510s both; transform-box: fill-box; transform-origin: center; }
g[id='wedge-2-0'] { animation: wedge-pop 0.35s ease-out 0.910s both, hi-bright-wedge 5.60s ease-in-out 1.670s infinite; }
#legend-2-0-sw { animation: hi-bright 5.60s ease-in-out 1.670s infinite; }
#legend-2-0-lb { animation: hi-bright 5.60s ease-in-out 1.670s infinite; }
#legend-2-0-pc { animation: hi-bright-pct 5.60s ease-in-out 1.670s infinite; }
g[id='wedge-2-1'] { animation: wedge-pop 0.35s ease-out 0.950s both, hi-bright-wedge 5.60s ease-in-out 3.070s infinite; }
#legend-2-1-sw { animation: hi-bright 5.60s ease-in-out 3.070s infinite; }
#legend-2-1-lb { animation: hi-bright 5.60s ease-in-out 3.070s infinite; }
#legend-2-1-pc { animation: hi-bright-pct 5.60s ease-in-out 3.070s infinite; }
g[id='wedge-2-2'] { animation: wedge-pop 0.35s ease-out 0.990s both, hi-bright-wedge 5.60s ease-in-out 4.470s infinite; }
#legend-2-2-sw { animation: hi-bright 5.60s ease-in-out 4.470s infinite; }
#legend-2-2-lb { animation: hi-bright 5.60s ease-in-out 4.470s infinite; }
#legend-2-2-pc { animation: hi-bright-pct 5.60s ease-in-out 4.470s infinite; }
g[id='wedge-2-3'] { animation: wedge-pop 0.35s ease-out 1.030s both, hi-bright-wedge 5.60s ease-in-out 5.870s infinite; }
#legend-2-3-sw { animation: hi-bright 5.60s ease-in-out 5.870s infinite; }
#legend-2-3-lb { animation: hi-bright 5.60s ease-in-out 5.870s infinite; }
#legend-2-3-pc { animation: hi-bright-pct 5.60s ease-in-out 5.870s infinite; }
g[id='donut-3'] { animation: donut-fade 0.7s cubic-bezier(.34,1.2,.64,1) 0.690s both; transform-box: fill-box; transform-origin: center; }
g[id='wedge-3-0'] { animation: wedge-pop 0.35s ease-out 1.090s both, hi-bright-wedge 8.40s ease-in-out 1.930s infinite; }
#legend-3-0-sw { animation: hi-bright 8.40s ease-in-out 1.930s infinite; }
#legend-3-0-lb { animation: hi-bright 8.40s ease-in-out 1.930s infinite; }
#legend-3-0-pc { animation: hi-bright-pct 8.40s ease-in-out 1.930s infinite; }
g[id='wedge-3-1'] { animation: wedge-pop 0.35s ease-out 1.130s both, hi-bright-wedge 8.40s ease-in-out 3.330s infinite; }
#legend-3-1-sw { animation: hi-bright 8.40s ease-in-out 3.330s infinite; }
#legend-3-1-lb { animation: hi-bright 8.40s ease-in-out 3.330s infinite; }
#legend-3-1-pc { animation: hi-bright-pct 8.40s ease-in-out 3.330s infinite; }
g[id='wedge-3-2'] { animation: wedge-pop 0.35s ease-out 1.170s both, hi-bright-wedge 8.40s ease-in-out 4.730s infinite; }
#legend-3-2-sw { animation: hi-bright 8.40s ease-in-out 4.730s infinite; }
#legend-3-2-lb { animation: hi-bright 8.40s ease-in-out 4.730s infinite; }
#legend-3-2-pc { animation: hi-bright-pct 8.40s ease-in-out 4.730s infinite; }
g[id='wedge-3-3'] { animation: wedge-pop 0.35s ease-out 1.210s both, hi-bright-wedge 8.40s ease-in-out 6.130s infinite; }
#legend-3-3-sw { animation: hi-bright 8.40s ease-in-out 6.130s infinite; }
#legend-3-3-lb { animation: hi-bright 8.40s ease-in-out 6.130s infinite; }
#legend-3-3-pc { animation: hi-bright-pct 8.40s ease-in-out 6.130s infinite; }
g[id='wedge-3-4'] { animation: wedge-pop 0.35s ease-out 1.250s both, hi-bright-wedge 8.40s ease-in-out 7.530s infinite; }
#legend-3-4-sw { animation: hi-bright 8.40s ease-in-out 7.530s infinite; }
#legend-3-4-lb { animation: hi-bright 8.40s ease-in-out 7.530s infinite; }
#legend-3-4-pc { animation: hi-bright-pct 8.40s ease-in-out 7.530s infinite; }
g[id='wedge-3-5'] { animation: wedge-pop 0.35s ease-out 1.290s both, hi-bright-wedge 8.40s ease-in-out 8.930s infinite; }
#legend-3-5-sw { animation: hi-bright 8.40s ease-in-out 8.930s infinite; }
#legend-3-5-lb { animation: hi-bright 8.40s ease-in-out 8.930s infinite; }
#legend-3-5-pc { animation: hi-bright-pct 8.40s ease-in-out 8.930s infinite; }
]]></style>
<defs>
  <clipPath id="p80a9ded4d2">
   <rect x="3.6" y="3.6" width="315.9552" height="179.52"/>
  </clipPath>
  <clipPath id="p17e6b5cf44">
   <rect x="364.255842" y="3.6" width="315.9552" height="179.52"/>
  </clipPath>
  <clipPath id="p62dc6f3d43">
   <rect x="3.6" y="201.072" width="315.9552" height="179.52"/>
  </clipPath>
  <clipPath id="p01e66a168f">
   <rect x="364.255842" y="201.072" width="315.9552" height="179.52"/>
  </clipPath>
 </defs>
<defs>
  <style type="text/css">*{stroke-linejoin: round; stroke-linecap: butt}</style>
 </defs>
 <g id="figure_1">
  <g id="patch_1">
   <path d="M 0 384.192 
L 683.811042 384.192 
L 683.811042 0 
L 0 0 
z
" style="fill: #ffffff"/>
  </g>
  <g id="donut-0"><g id="axes-0">
   <g id="wedge-0-0">
    <path d="M 105.585106 169.349411 
C 123.920026 164.147324 139.766772 152.481163 150.180295 136.519034 
C 160.593818 120.556904 164.886412 101.352939 162.260319 82.47611 
C 159.634227 63.599282 150.262872 46.296207 135.887881 33.782589 
C 121.51289 21.26897 103.083581 14.3712 84.02496 14.3712 
L 84.02496 43.81248 
C 95.979913 43.81248 107.540116 48.139263 116.557156 55.988715 
C 125.574196 63.838167 131.452591 74.691913 133.099867 86.532833 
C 134.747144 98.373753 132.054516 110.419876 125.522397 120.432485 
C 118.990279 130.445093 109.050047 137.762958 97.549051 141.026085 
z
" clip-path="url(#p80a9ded4d2)" style="fill: #4c78a8; stroke: #ffffff; stroke-width: 2; stroke-linejoin: miter"/>
   </g>
   <g id="wedge-0-1">
    <path d="M 23.480597 144.090766 
C 33.268936 155.772607 46.232174 164.375582 60.799068 168.856943 
C 75.365961 173.338305 90.923192 173.509373 105.585106 169.349411 
L 97.549051 141.026085 
C 88.352033 143.635515 78.593406 143.528209 69.455991 140.717174 
C 60.318576 137.906138 52.187091 132.509727 46.047132 125.182026 
z
" clip-path="url(#p80a9ded4d2)" style="fill: #f58518; stroke: #ffffff; stroke-width: 2; stroke-linejoin: miter"/>
   </g>
   <g id="wedge-0-2">
    <path d="M 5.037719 92.863702 
C 4.979361 102.151638 6.559679 111.377489 9.705917 120.116502 
C 12.852155 128.855515 17.515278 136.971488 23.480597 144.090766 
L 46.047132 125.182026 
C 42.30525 120.716297 39.380201 115.625368 37.406651 110.143624 
C 35.433102 104.661879 34.441811 98.874755 34.478418 93.048686 
z
" clip-path="url(#p80a9ded4d2)" style="fill: #54a24b; stroke: #ffffff; stroke-width: 2; stroke-linejoin: miter"/>
   </g>
   <g id="wedge-0-3">
    <path d="M 17.067897 51.455558 
C 13.200122 57.635687 10.206542 64.321656 8.172514 71.322827 
C 6.138486 78.323998 5.083527 85.57319 5.037719 92.863702 
L 34.478418 93.048686 
C 34.507152 88.475546 35.168899 83.928326 36.444789 79.536683 
C 37.72068 75.145039 39.598471 70.951112 42.024621 67.074486 
z
" clip-path="url(#p80a9ded4d2)" style="fill: #e45756; stroke: #ffffff; stroke-width: 2; stroke-linejoin: miter"/>
   </g>
   <g id="wedge-0-4">
    <path d="M 44.673916 24.871126 
C 39.07266 28.08939 33.887297 31.98267 29.234118 36.463654 
C 24.580938 40.944639 20.494987 45.979578 17.067897 51.455558 
L 42.024621 67.074486 
C 44.174341 63.639554 46.737346 60.481273 49.656159 57.670474 
C 52.574972 54.859675 55.827608 52.417527 59.341124 50.398797 
z
" clip-path="url(#p80a9ded4d2)" style="fill: #72b7b2; stroke: #ffffff; stroke-width: 2; stroke-linejoin: miter"/>
   </g>
   <g id="wedge-0-5">
    <path d="M 67.76412 16.063069 
C 63.714782 16.914922 59.738637 18.083657 55.872413 19.558478 
C 52.006189 21.033299 48.261828 22.809651 44.673916 24.871126 
L 59.341124 50.398797 
C 61.591723 49.10569 63.940458 47.991433 66.365635 47.066318 
C 68.790812 46.141203 71.284939 45.408087 73.824978 44.873743 
z
" clip-path="url(#p80a9ded4d2)" style="fill: #eeca3b; stroke: #ffffff; stroke-width: 2; stroke-linejoin: miter"/>
   </g>
   <g id="wedge-0-6">
    <path d="M 77.085699 14.676602 
C 75.520039 14.814681 73.958849 14.99946 72.404214 15.230692 
C 70.849579 15.461924 69.302192 15.739507 67.76412 16.063069 
L 73.824978 44.873743 
C 74.789769 44.670781 75.760403 44.496662 76.735583 44.351616 
C 77.710763 44.20657 78.690055 44.090663 79.672151 44.00405 
z
" clip-path="url(#p80a9ded4d2)" style="fill: #b279a2; stroke: #ffffff; stroke-width: 2; stroke-linejoin: miter"/>
   </g>
   <g id="wedge-0-7">
    <path d="M 84.02496 14.3712 
C 82.866877 14.3712 81.708934 14.396669 80.551971 14.447587 
C 79.395008 14.498506 78.239305 14.574863 77.085699 14.676602 
L 79.672151 44.00405 
C 80.395776 43.940232 81.120717 43.892336 81.846449 43.860396 
C 82.57218 43.828456 83.298526 43.81248 84.02496 43.81248 
z
" clip-path="url(#p80a9ded4d2)" style="fill: #ff9da6; stroke: #ffffff; stroke-width: 2; stroke-linejoin: miter"/>
   </g>
   <g id="legend-0-0-sw">
    <path d="M 174.50304 44.17152 
L 185.99232 44.17152 
L 185.99232 36.99072 
L 174.50304 36.99072 
z
" clip-path="url(#p80a9ded4d2)" style="fill: #4c78a8"/>
   </g>
   <g id="legend-0-1-sw">
    <path d="M 174.50304 59.2512 
L 185.99232 59.2512 
L 185.99232 52.0704 
L 174.50304 52.0704 
z
" clip-path="url(#p80a9ded4d2)" style="fill: #f58518"/>
   </g>
   <g id="legend-0-2-sw">
    <path d="M 174.50304 74.33088 
L 185.99232 74.33088 
L 185.99232 67.15008 
L 174.50304 67.15008 
z
" clip-path="url(#p80a9ded4d2)" style="fill: #54a24b"/>
   </g>
   <g id="legend-0-3-sw">
    <path d="M 174.50304 89.41056 
L 185.99232 89.41056 
L 185.99232 82.22976 
L 174.50304 82.22976 
z
" clip-path="url(#p80a9ded4d2)" style="fill: #e45756"/>
   </g>
   <g id="legend-0-4-sw">
    <path d="M 174.50304 104.49024 
L 185.99232 104.49024 
L 185.99232 97.30944 
L 174.50304 97.30944 
z
" clip-path="url(#p80a9ded4d2)" style="fill: #72b7b2"/>
   </g>
   <g id="legend-0-5-sw">
    <path d="M 174.50304 119.56992 
L 185.99232 119.56992 
L 185.99232 112.38912 
L 174.50304 112.38912 
z
" clip-path="url(#p80a9ded4d2)" style="fill: #eeca3b"/>
   </g>
   <g id="legend-0-6-sw">
    <path d="M 174.50304 134.6496 
L 185.99232 134.6496 
L 185.99232 127.4688 
L 174.50304 127.4688 
z
" clip-path="url(#p80a9ded4d2)" style="fill: #b279a2"/>
   </g>
   <g id="legend-0-7-sw">
    <path d="M 174.50304 149.72928 
L 185.99232 149.72928 
L 185.99232 142.54848 
L 174.50304 142.54848 
z
" clip-path="url(#p80a9ded4d2)" style="fill: #ff9da6"/>
   </g>
   <g id="text_1">
    <text style="font-weight: 700; font-size: 11px; font-family: 'DejaVu Serif', 'Nimbus Roman', 'Times New Roman', 'Times', serif; text-anchor: middle; fill: #1a1a1a" x="84.02496" y="86.982069" transform="rotate(-0 84.02496 86.982069)">Mid-Training-85M</text>
   </g>
   <g id="text_2">
    <text style="font-size: 9px; font-family: 'DejaVu Serif', 'Nimbus Roman', 'Times New Roman', 'Times', serif; text-anchor: middle; fill: #6a737d" x="84.02496" y="108.768877" transform="rotate(-0 84.02496 108.768877)">85M samples</text>
   </g>
   <g id="legend-0-0-lb">
    <text style="font-size: 9px; font-family: 'DejaVu Serif', 'Nimbus Roman', 'Times New Roman', 'Times', serif; text-anchor: start; fill: #1a1a1a" x="193.17312" y="43.064557" transform="rotate(-0 193.17312 43.064557)">Obelics</text>
   </g>
   <g id="legend-0-0-pc">
    <text style="font-size: 9px; font-family: 'DejaVu Serif', 'Nimbus Roman', 'Times New Roman', 'Times', serif; text-anchor: end; fill: #6a737d" x="316.68288" y="43.064557" transform="rotate(-0 316.68288 43.064557)">45.6%</text>
   </g>
   <g id="legend-0-1-lb">
    <text style="font-size: 9px; font-family: 'DejaVu Serif', 'Nimbus Roman', 'Times New Roman', 'Times', serif; text-anchor: start; fill: #1a1a1a" x="193.17312" y="58.144237" transform="rotate(-0 193.17312 58.144237)">COYO-700M</text>
   </g>
   <g id="legend-0-1-pc">
    <text style="font-size: 9px; font-family: 'DejaVu Serif', 'Nimbus Roman', 'Times New Roman', 'Times', serif; text-anchor: end; fill: #6a737d" x="316.68288" y="58.144237" transform="rotate(-0 316.68288 58.144237)">18.3%</text>
   </g>
   <g id="legend-0-2-lb">
    <text style="font-size: 9px; font-family: 'DejaVu Serif', 'Nimbus Roman', 'Times New Roman', 'Times', serif; text-anchor: start; fill: #1a1a1a" x="193.17312" y="73.223917" transform="rotate(-0 193.17312 73.223917)">Zero250M</text>
   </g>
   <g id="legend-0-2-pc">
    <text style="font-size: 9px; font-family: 'DejaVu Serif', 'Nimbus Roman', 'Times New Roman', 'Times', serif; text-anchor: end; fill: #6a737d" x="316.68288" y="73.223917" transform="rotate(-0 316.68288 73.223917)">11.2%</text>
   </g>
   <g id="legend-0-3-lb">
    <text style="font-size: 9px; font-family: 'DejaVu Serif', 'Nimbus Roman', 'Times New Roman', 'Times', serif; text-anchor: start; fill: #1a1a1a" x="193.17312" y="88.303597" transform="rotate(-0 193.17312 88.303597)">DataComp-1B</text>
   </g>
   <g id="legend-0-3-pc">
    <text style="font-size: 9px; font-family: 'DejaVu Serif', 'Nimbus Roman', 'Times New Roman', 'Times', serif; text-anchor: end; fill: #6a737d" x="316.68288" y="88.303597" transform="rotate(-0 316.68288 88.303597)"> 8.8%</text>
   </g>
   <g id="legend-0-4-lb">
    <text style="font-size: 9px; font-family: 'DejaVu Serif', 'Nimbus Roman', 'Times New Roman', 'Times', serif; text-anchor: start; fill: #1a1a1a" x="193.17312" y="103.383277" transform="rotate(-0 193.17312 103.383277)">LAION-CN</text>
   </g>
   <g id="legend-0-4-pc">
    <text style="font-size: 9px; font-family: 'DejaVu Serif', 'Nimbus Roman', 'Times New Roman', 'Times', serif; text-anchor: end; fill: #6a737d" x="316.68288" y="103.383277" transform="rotate(-0 316.68288 103.383277)"> 7.8%</text>
   </g>
   <g id="legend-0-5-lb">
    <text style="font-size: 9px; font-family: 'DejaVu Serif', 'Nimbus Roman', 'Times New Roman', 'Times', serif; text-anchor: start; fill: #1a1a1a" x="193.17312" y="118.462957" transform="rotate(-0 193.17312 118.462957)">MINT</text>
   </g>
   <g id="legend-0-5-pc">
    <text style="font-size: 9px; font-family: 'DejaVu Serif', 'Nimbus Roman', 'Times New Roman', 'Times', serif; text-anchor: end; fill: #6a737d" x="316.68288" y="118.462957" transform="rotate(-0 316.68288 118.462957)"> 5.0%</text>
   </g>
   <g id="legend-0-6-lb">
    <text style="font-size: 9px; font-family: 'DejaVu Serif', 'Nimbus Roman', 'Times New Roman', 'Times', serif; text-anchor: start; fill: #1a1a1a" x="193.17312" y="133.414669" transform="rotate(-0 193.17312 133.414669)">ImageNet-21K</text>
   </g>
   <g id="legend-0-6-pc">
    <text style="font-size: 9px; font-family: 'DejaVu Serif', 'Nimbus Roman', 'Times New Roman', 'Times', serif; text-anchor: end; fill: #6a737d" x="316.68288" y="133.542637" transform="rotate(-0 316.68288 133.542637)"> 1.9%</text>
   </g>
   <g id="legend-0-7-lb">
    <text style="font-size: 9px; font-family: 'DejaVu Serif', 'Nimbus Roman', 'Times New Roman', 'Times', serif; text-anchor: start; fill: #1a1a1a" x="193.17312" y="148.622317" transform="rotate(-0 193.17312 148.622317)">SA-1B</text>
   </g>
   <g id="legend-0-7-pc">
    <text style="font-size: 9px; font-family: 'DejaVu Serif', 'Nimbus Roman', 'Times New Roman', 'Times', serif; text-anchor: end; fill: #6a737d" x="316.68288" y="148.622317" transform="rotate(-0 316.68288 148.622317)"> 1.4%</text>
   </g>
  </g></g>
  <g id="donut-1"><g id="axes-1">
   <g id="wedge-1-0">
    <path d="M 522.296386 108.024636 
C 524.452787 96.611441 524.065454 84.861848 521.162063 73.615453 
C 518.258673 62.369058 512.910069 51.900276 505.498449 42.95718 
C 498.086829 34.014084 488.79304 26.814887 478.28119 21.874027 
C 467.769341 16.933166 456.295925 14.3712 444.680802 14.3712 
L 444.680802 43.81248 
C 451.966651 43.81248 459.163613 45.419531 465.757409 48.518798 
C 472.351206 51.618066 478.180946 56.133925 482.830053 61.743686 
C 487.47916 67.353446 490.834194 73.920227 492.655411 80.974784 
C 494.476629 88.029341 494.719593 95.39954 493.366941 102.558726 
z
" clip-path="url(#p17e6b5cf44)" style="fill: #4c78a8; stroke: #ffffff; stroke-width: 2; stroke-linejoin: miter"/>
   </g>
   <g id="wedge-1-1">
    <path d="M 431.602461 171.258572 
C 451.979839 174.679717 472.907571 169.972152 489.857086 158.154551 
C 506.806601 146.336951 518.460285 128.327987 522.296386 108.024636 
L 493.366941 102.558726 
C 490.960659 115.294464 483.650621 126.590996 473.018653 134.003855 
C 462.386684 141.416713 449.259289 144.36964 436.477115 142.22365 
z
" clip-path="url(#p17e6b5cf44)" style="fill: #f58518; stroke: #ffffff; stroke-width: 2; stroke-linejoin: miter"/>
   </g>
   <g id="wedge-1-2">
    <path d="M 371.551455 123.215136 
C 376.638289 135.675199 384.826206 146.630883 395.335242 155.038572 
C 405.844278 163.446261 418.329799 169.030234 431.602461 171.258572 
L 436.477115 142.22365 
C 428.151536 140.825874 420.319709 137.3232 413.727678 132.049286 
C 407.135646 126.775372 401.999589 119.903171 398.808757 112.087313 
z
" clip-path="url(#p17e6b5cf44)" style="fill: #54a24b; stroke: #ffffff; stroke-width: 2; stroke-linejoin: miter"/>
   </g>
   <g id="wedge-1-3">
    <path d="M 369.436366 69.328656 
C 366.638743 78.088283 365.392123 87.269535 365.752777 96.457989 
C 366.113432 105.646444 368.075851 114.701738 371.551455 123.215136 
L 398.808757 112.087313 
C 396.628605 106.747091 395.397633 101.066951 395.171405 95.303284 
C 394.945176 89.539617 395.727147 83.780468 397.48202 78.285793 
z
" clip-path="url(#p17e6b5cf44)" style="fill: #e45756; stroke: #ffffff; stroke-width: 2; stroke-linejoin: miter"/>
   </g>
   <g id="wedge-1-4">
    <path d="M 387.828496 38.523462 
C 383.636107 42.869962 379.955964 47.682936 376.86025 52.867985 
C 373.764535 58.053033 371.273622 63.576033 369.436366 69.328656 
L 397.48202 78.285793 
C 398.63448 74.67733 400.196962 71.212903 402.138819 67.960463 
C 404.080676 64.708024 406.38913 61.688976 409.018901 58.962536 
z
" clip-path="url(#p17e6b5cf44)" style="fill: #72b7b2; stroke: #ffffff; stroke-width: 2; stroke-linejoin: miter"/>
   </g>
   <g id="wedge-1-5">
    <path d="M 406.66242 24.122487 
C 403.183997 26.032493 399.854449 28.201914 396.702068 30.612317 
C 393.549688 33.022721 390.583428 35.66726 387.828496 38.523462 
L 409.018901 58.962536 
C 410.746995 57.170917 412.607648 55.51207 414.585051 54.00009 
C 416.562453 52.48811 418.650988 51.127291 420.832908 49.929196 
z
" clip-path="url(#p17e6b5cf44)" style="fill: #eeca3b; stroke: #ffffff; stroke-width: 2; stroke-linejoin: miter"/>
   </g>
   <g id="wedge-1-6">
    <path d="M 425.536939 16.726176 
C 422.248811 17.547581 419.016956 18.579762 415.861417 19.816315 
C 412.705879 21.052868 409.633194 22.491233 406.66242 24.122487 
L 420.832908 49.929196 
C 422.696393 48.905955 424.623805 48.003708 426.603188 47.228052 
C 428.582571 46.452396 430.609826 45.804937 432.672379 45.289692 
z
" clip-path="url(#p17e6b5cf44)" style="fill: #b279a2; stroke: #ffffff; stroke-width: 2; stroke-linejoin: miter"/>
   </g>
   <g id="wedge-1-7">
    <path d="M 441.706672 14.427212 
C 438.981067 14.52991 436.262609 14.773716 433.562227 15.157648 
C 430.861844 15.541581 428.183159 16.065124 425.536939 16.726176 
L 432.672379 45.289692 
C 434.33228 44.875033 436.012546 44.546628 437.706423 44.305798 
C 439.400299 44.064967 441.105513 43.912035 442.815211 43.847615 
z
" clip-path="url(#p17e6b5cf44)" style="fill: #ff9da6; stroke: #ffffff; stroke-width: 2; stroke-linejoin: miter"/>
   </g>
   <g id="wedge-1-8">
    <path d="M 444.680802 14.3712 
C 444.184992 14.3712 443.689194 14.375868 443.193473 14.385204 
C 442.697752 14.39454 442.20213 14.408543 441.706672 14.427212 
L 442.815211 43.847615 
C 443.125998 43.835904 443.436889 43.827121 443.747841 43.821264 
C 444.058793 43.815408 444.369794 43.81248 444.680802 43.81248 
z
" clip-path="url(#p17e6b5cf44)" style="fill: #9d755d; stroke: #ffffff; stroke-width: 2; stroke-linejoin: miter"/>
   </g>
   <g id="legend-1-0-sw">
    <path d="M 535.158882 36.63168 
L 546.648162 36.63168 
L 546.648162 29.45088 
L 535.158882 29.45088 
z
" clip-path="url(#p17e6b5cf44)" style="fill: #4c78a8"/>
   </g>
   <g id="legend-1-1-sw">
    <path d="M 535.158882 51.71136 
L 546.648162 51.71136 
L 546.648162 44.53056 
L 535.158882 44.53056 
z
" clip-path="url(#p17e6b5cf44)" style="fill: #f58518"/>
   </g>
   <g id="legend-1-2-sw">
    <path d="M 535.158882 66.79104 
L 546.648162 66.79104 
L 546.648162 59.61024 
L 535.158882 59.61024 
z
" clip-path="url(#p17e6b5cf44)" style="fill: #54a24b"/>
   </g>
   <g id="legend-1-3-sw">
    <path d="M 535.158882 81.87072 
L 546.648162 81.87072 
L 546.648162 74.68992 
L 535.158882 74.68992 
z
" clip-path="url(#p17e6b5cf44)" style="fill: #e45756"/>
   </g>
   <g id="legend-1-4-sw">
    <path d="M 535.158882 96.9504 
L 546.648162 96.9504 
L 546.648162 89.7696 
L 535.158882 89.7696 
z
" clip-path="url(#p17e6b5cf44)" style="fill: #72b7b2"/>
   </g>
   <g id="legend-1-5-sw">
    <path d="M 535.158882 112.03008 
L 546.648162 112.03008 
L 546.648162 104.84928 
L 535.158882 104.84928 
z
" clip-path="url(#p17e6b5cf44)" style="fill: #eeca3b"/>
   </g>
   <g id="legend-1-6-sw">
    <path d="M 535.158882 127.10976 
L 546.648162 127.10976 
L 546.648162 119.92896 
L 535.158882 119.92896 
z
" clip-path="url(#p17e6b5cf44)" style="fill: #b279a2"/>
   </g>
   <g id="legend-1-7-sw">
    <path d="M 535.158882 142.18944 
L 546.648162 142.18944 
L 546.648162 135.00864 
L 535.158882 135.00864 
z
" clip-path="url(#p17e6b5cf44)" style="fill: #ff9da6"/>
   </g>
   <g id="legend-1-8-sw">
    <path d="M 535.158882 157.26912 
L 546.648162 157.26912 
L 546.648162 150.08832 
L 535.158882 150.08832 
z
" clip-path="url(#p17e6b5cf44)" style="fill: #9d755d"/>
   </g>
   <g id="text_3">
    <text style="font-weight: 700; font-size: 11px; font-family: 'DejaVu Serif', 'Nimbus Roman', 'Times New Roman', 'Times', serif; text-anchor: middle; fill: #1a1a1a" x="444.680802" y="87.060272" transform="rotate(-0 444.680802 87.060272)">Instruct</text>
   </g>
   <g id="text_4">
    <text style="font-size: 9px; font-family: 'DejaVu Serif', 'Nimbus Roman', 'Times New Roman', 'Times', serif; text-anchor: middle; fill: #6a737d" x="444.680802" y="108.768877" transform="rotate(-0 444.680802 108.768877)">22M samples</text>
   </g>
   <g id="legend-1-0-lb">
    <text style="font-size: 9px; font-family: 'DejaVu Serif', 'Nimbus Roman', 'Times New Roman', 'Times', serif; text-anchor: start; fill: #1a1a1a" x="553.828962" y="35.524717" transform="rotate(-0 553.828962 35.524717)">Text</text>
   </g>
   <g id="legend-1-0-pc">
    <text style="font-size: 9px; font-family: 'DejaVu Serif', 'Nimbus Roman', 'Times New Roman', 'Times', serif; text-anchor: end; fill: #6a737d" x="677.338722" y="35.524717" transform="rotate(-0 677.338722 35.524717)">28.0%</text>
   </g>
   <g id="legend-1-1-lb">
    <text style="font-size: 9px; font-family: 'DejaVu Serif', 'Nimbus Roman', 'Times New Roman', 'Times', serif; text-anchor: start; fill: #1a1a1a" x="553.828962" y="50.604397" transform="rotate(-0 553.828962 50.604397)">General VQA</text>
   </g>
   <g id="legend-1-1-pc">
    <text style="font-size: 9px; font-family: 'DejaVu Serif', 'Nimbus Roman', 'Times New Roman', 'Times', serif; text-anchor: end; fill: #6a737d" x="677.338722" y="50.604397" transform="rotate(-0 677.338722 50.604397)">24.7%</text>
   </g>
   <g id="legend-1-2-lb">
    <text style="font-size: 8.4px; font-family: 'DejaVu Serif', 'Nimbus Roman', 'Times New Roman', 'Times', serif; text-anchor: start; fill: #1a1a1a" x="553.828962" y="65.518515" transform="rotate(-0 553.828962 65.518515)">Domain-specific</text>
   </g>
   <g id="legend-1-2-pc">
    <text style="font-size: 9px; font-family: 'DejaVu Serif', 'Nimbus Roman', 'Times New Roman', 'Times', serif; text-anchor: end; fill: #6a737d" x="677.338722" y="65.684077" transform="rotate(-0 677.338722 65.684077)">16.2%</text>
   </g>
   <g id="legend-1-3-lb">
    <text style="font-size: 9px; font-family: 'DejaVu Serif', 'Nimbus Roman', 'Times New Roman', 'Times', serif; text-anchor: start; fill: #1a1a1a" x="553.828962" y="80.763757" transform="rotate(-0 553.828962 80.763757)">OCR</text>
   </g>
   <g id="legend-1-3-pc">
    <text style="font-size: 9px; font-family: 'DejaVu Serif', 'Nimbus Roman', 'Times New Roman', 'Times', serif; text-anchor: end; fill: #6a737d" x="677.338722" y="80.763757" transform="rotate(-0 677.338722 80.763757)">11.1%</text>
   </g>
   <g id="legend-1-4-lb">
    <text style="font-size: 9px; font-family: 'DejaVu Serif', 'Nimbus Roman', 'Times New Roman', 'Times', serif; text-anchor: start; fill: #1a1a1a" x="553.828962" y="95.843437" transform="rotate(-0 553.828962 95.843437)">Chart &amp; Table</text>
   </g>
   <g id="legend-1-4-pc">
    <text style="font-size: 9px; font-family: 'DejaVu Serif', 'Nimbus Roman', 'Times New Roman', 'Times', serif; text-anchor: end; fill: #6a737d" x="677.338722" y="95.843437" transform="rotate(-0 677.338722 95.843437)"> 7.3%</text>
   </g>
   <g id="legend-1-5-lb">
    <text style="font-size: 9px; font-family: 'DejaVu Serif', 'Nimbus Roman', 'Times New Roman', 'Times', serif; text-anchor: start; fill: #1a1a1a" x="553.828962" y="110.923117" transform="rotate(-0 553.828962 110.923117)">Caption</text>
   </g>
   <g id="legend-1-5-pc">
    <text style="font-size: 9px; font-family: 'DejaVu Serif', 'Nimbus Roman', 'Times New Roman', 'Times', serif; text-anchor: end; fill: #6a737d" x="677.338722" y="110.923117" transform="rotate(-0 677.338722 110.923117)"> 4.8%</text>
   </g>
   <g id="legend-1-6-lb">
    <text style="font-size: 9px; font-family: 'DejaVu Serif', 'Nimbus Roman', 'Times New Roman', 'Times', serif; text-anchor: start; fill: #1a1a1a" x="553.828962" y="126.002797" transform="rotate(-0 553.828962 126.002797)">Science</text>
   </g>
   <g id="legend-1-6-pc">
    <text style="font-size: 9px; font-family: 'DejaVu Serif', 'Nimbus Roman', 'Times New Roman', 'Times', serif; text-anchor: end; fill: #6a737d" x="677.338722" y="126.002797" transform="rotate(-0 677.338722 126.002797)"> 4.1%</text>
   </g>
   <g id="legend-1-7-lb">
    <text style="font-size: 7.875px; font-family: 'DejaVu Serif', 'Nimbus Roman', 'Times New Roman', 'Times', serif; text-anchor: start; fill: #1a1a1a" x="553.828962" y="140.772048" transform="rotate(-0 553.828962 140.772048)">Code/Mathematics</text>
   </g>
   <g id="legend-1-7-pc">
    <text style="font-size: 9px; font-family: 'DejaVu Serif', 'Nimbus Roman', 'Times New Roman', 'Times', serif; text-anchor: end; fill: #6a737d" x="677.338722" y="141.082477" transform="rotate(-0 677.338722 141.082477)"> 3.3%</text>
   </g>
   <g id="legend-1-8-lb">
    <text style="font-size: 6.3px; font-family: 'DejaVu Serif', 'Nimbus Roman', 'Times New Roman', 'Times', serif; text-anchor: start; fill: #1a1a1a" x="553.828962" y="155.372337" transform="rotate(-0 553.828962 155.372337)">Grounding &amp; Counting</text>
   </g>
   <g id="legend-1-8-pc">
    <text style="font-size: 9px; font-family: 'DejaVu Serif', 'Nimbus Roman', 'Times New Roman', 'Times', serif; text-anchor: end; fill: #6a737d" x="677.338722" y="156.162157" transform="rotate(-0 677.338722 156.162157)"> 0.6%</text>
   </g>
  </g></g>
  <g id="donut-2"><g id="axes-2">
   <g id="wedge-2-0">
    <path d="M 154.52735 326.450022 
C 160.610803 314.408423 163.509015 301.006679 162.944605 287.527438 
C 162.380196 274.048196 158.371764 260.93565 151.302948 249.44477 
C 144.234132 237.953889 134.337875 228.463341 122.561325 221.881445 
C 110.784775 215.299548 97.516013 211.8432 84.02496 211.8432 
L 84.02496 241.28448 
C 92.487529 241.28448 100.810662 243.452553 108.197771 247.581197 
C 115.58488 251.709841 121.792531 257.663003 126.226607 264.870919 
C 130.660683 272.078835 133.175062 280.303978 133.529101 288.759138 
C 133.88314 297.214299 132.06517 305.620847 128.249186 313.174214 
z
" clip-path="url(#p62dc6f3d43)" style="fill: #4c78a8; stroke: #ffffff; stroke-width: 2; stroke-linejoin: miter"/>
   </g>
   <g id="wedge-2-1">
    <path d="M 32.631643 350.814977 
C 41.724694 358.605888 52.471401 364.228085 64.056681 367.255153 
C 75.641961 370.282222 87.765322 370.635647 99.50727 368.288624 
C 111.249218 365.941601 122.305197 360.955005 131.836667 353.707044 
C 141.368137 346.459084 149.127877 337.137751 154.52735 326.450022 
L 128.249186 313.174214 
C 124.862244 319.878335 119.994771 325.725353 114.01594 330.271801 
C 108.037108 334.818249 101.101994 337.946204 93.736591 339.418428 
C 86.371187 340.890651 78.766533 340.668957 71.499403 338.77016 
C 64.232273 336.871362 57.491157 333.344711 51.787334 328.457686 
z
" clip-path="url(#p62dc6f3d43)" style="fill: #f58518; stroke: #ffffff; stroke-width: 2; stroke-linejoin: miter"/>
   </g>
   <g id="wedge-2-2">
    <path d="M 28.63245 234.521252 
C 20.833987 242.192548 14.713479 251.40087 10.659773 261.561199 
C 6.606066 271.721528 4.706863 282.614041 5.082824 293.54672 
C 5.458785 304.479399 8.101775 315.215711 12.843882 325.073563 
C 17.585988 334.931415 24.324614 343.697528 32.631643 350.814977 
L 51.787334 328.457686 
C 46.576561 323.993104 42.349605 318.49436 39.375011 312.310799 
C 36.400417 306.127237 34.742541 299.392641 34.506711 292.53487 
C 34.270881 285.677098 35.462199 278.844522 38.004979 272.471225 
C 40.547759 266.097928 44.386986 260.321798 49.278749 255.509803 
z
" clip-path="url(#p62dc6f3d43)" style="fill: #54a24b; stroke: #ffffff; stroke-width: 2; stroke-linejoin: miter"/>
   </g>
   <g id="wedge-2-3">
    <path d="M 84.02496 211.8432 
C 73.761489 211.8432 63.595721 213.843588 54.097447 217.732243 
C 44.599173 221.620898 35.949231 227.323783 28.63245 234.521252 
L 49.278749 255.509803 
C 53.868366 250.995027 59.294239 247.417763 65.252247 244.978516 
C 71.210255 242.539269 77.586964 241.28448 84.02496 241.28448 
z
" clip-path="url(#p62dc6f3d43)" style="fill: #e45756; stroke: #ffffff; stroke-width: 2; stroke-linejoin: miter"/>
   </g>
   <g id="legend-2-0-sw">
    <path d="M 174.50304 265.34016 
L 185.99232 265.34016 
L 185.99232 258.15936 
L 174.50304 258.15936 
z
" clip-path="url(#p62dc6f3d43)" style="fill: #4c78a8"/>
   </g>
   <g id="legend-2-1-sw">
    <path d="M 174.50304 284.72832 
L 185.99232 284.72832 
L 185.99232 277.54752 
L 174.50304 277.54752 
z
" clip-path="url(#p62dc6f3d43)" style="fill: #f58518"/>
   </g>
   <g id="legend-2-2-sw">
    <path d="M 174.50304 304.11648 
L 185.99232 304.11648 
L 185.99232 296.93568 
L 174.50304 296.93568 
z
" clip-path="url(#p62dc6f3d43)" style="fill: #54a24b"/>
   </g>
   <g id="legend-2-3-sw">
    <path d="M 174.50304 323.50464 
L 185.99232 323.50464 
L 185.99232 316.32384 
L 174.50304 316.32384 
z
" clip-path="url(#p62dc6f3d43)" style="fill: #e45756"/>
   </g>
   <g id="text_5">
    <text style="font-weight: 700; font-size: 11px; font-family: 'DejaVu Serif', 'Nimbus Roman', 'Times New Roman', 'Times', serif; text-anchor: middle; fill: #1a1a1a" x="84.02496" y="284.532272" transform="rotate(-0 84.02496 284.532272)">VideoCaption</text>
   </g>
   <g id="text_6">
    <text style="font-size: 9px; font-family: 'DejaVu Serif', 'Nimbus Roman', 'Times New Roman', 'Times', serif; text-anchor: middle; fill: #6a737d" x="84.02496" y="306.240877" transform="rotate(-0 84.02496 306.240877)">7.96M clips · 104.1B tokens</text>
   </g>
   <g id="legend-2-0-lb">
    <text style="font-size: 10px; font-family: 'DejaVu Serif', 'Nimbus Roman', 'Times New Roman', 'Times', serif; text-anchor: start; fill: #1a1a1a" x="193.17312" y="264.509135" transform="rotate(-0 193.17312 264.509135)">30–60s</text>
   </g>
   <g id="legend-2-0-pc">
    <text style="font-size: 10px; font-family: 'DejaVu Serif', 'Nimbus Roman', 'Times New Roman', 'Times', serif; text-anchor: end; fill: #6a737d" x="316.68288" y="264.509135" transform="rotate(-0 316.68288 264.509135)">32.4%</text>
   </g>
   <g id="legend-2-1-lb">
    <text style="font-size: 10px; font-family: 'DejaVu Serif', 'Nimbus Roman', 'Times New Roman', 'Times', serif; text-anchor: start; fill: #1a1a1a" x="193.17312" y="283.897295" transform="rotate(-0 193.17312 283.897295)">10–15 min</text>
   </g>
   <g id="legend-2-1-pc">
    <text style="font-size: 10px; font-family: 'DejaVu Serif', 'Nimbus Roman', 'Times New Roman', 'Times', serif; text-anchor: end; fill: #6a737d" x="316.68288" y="283.897295" transform="rotate(-0 316.68288 283.897295)">28.8%</text>
   </g>
   <g id="legend-2-2-lb">
    <text style="font-size: 10px; font-family: 'DejaVu Serif', 'Nimbus Roman', 'Times New Roman', 'Times', serif; text-anchor: start; fill: #1a1a1a" x="193.17312" y="303.285455" transform="rotate(-0 193.17312 303.285455)">30s</text>
   </g>
   <g id="legend-2-2-pc">
    <text style="font-size: 10px; font-family: 'DejaVu Serif', 'Nimbus Roman', 'Times New Roman', 'Times', serif; text-anchor: end; fill: #6a737d" x="316.68288" y="303.285455" transform="rotate(-0 316.68288 303.285455)">26.4%</text>
   </g>
   <g id="legend-2-3-lb">
    <text style="font-size: 10px; font-family: 'DejaVu Serif', 'Nimbus Roman', 'Times New Roman', 'Times', serif; text-anchor: start; fill: #1a1a1a" x="193.17312" y="322.673615" transform="rotate(-0 193.17312 322.673615)">60–180s</text>
   </g>
   <g id="legend-2-3-pc">
    <text style="font-size: 10px; font-family: 'DejaVu Serif', 'Nimbus Roman', 'Times New Roman', 'Times', serif; text-anchor: end; fill: #6a737d" x="316.68288" y="322.673615" transform="rotate(-0 316.68288 322.673615)">12.4%</text>
   </g>
  </g></g>
  <g id="donut-3"><g id="axes-3">
   <g id="wedge-3-0">
    <path d="M 499.775917 347.433756 
C 511.034335 336.475017 518.771158 322.402485 521.992008 307.024836 
C 525.212857 291.647188 523.773569 275.652718 517.859129 261.097124 
C 511.94469 246.541529 501.819825 234.076309 488.785837 225.303561 
C 475.75185 216.530813 460.392133 211.8432 444.680802 211.8432 
L 444.680802 241.28448 
C 454.536091 241.28448 464.170823 244.224892 472.346688 249.727797 
C 480.522552 255.230703 486.873604 263.049795 490.583571 272.180123 
C 494.293538 281.310451 495.196364 291.343345 493.176013 300.989325 
C 491.155662 310.635304 486.302564 319.46262 479.240465 326.336738 
z
" clip-path="url(#p01e66a168f)" style="fill: #4c78a8; stroke: #ffffff; stroke-width: 2; stroke-linejoin: miter"/>
   </g>
   <g id="wedge-3-1">
    <path d="M 377.853325 332.942794 
C 384.126901 342.898608 392.546703 351.327804 402.495516 357.612477 
C 412.444328 363.897151 423.672962 367.879889 435.358298 369.268735 
C 447.043635 370.657582 458.892991 369.417751 470.037745 365.640128 
C 481.1825 361.862504 491.343509 355.641708 499.775917 347.433756 
L 479.240465 326.336738 
C 473.951045 331.485362 467.577321 335.387498 460.586521 337.757098 
C 453.59572 340.126698 446.162942 340.90441 438.833049 340.033225 
C 431.503156 339.162039 424.459741 336.663777 418.219122 332.721572 
C 411.978504 328.779368 406.696991 323.491963 402.761748 317.246952 
z
" clip-path="url(#p01e66a168f)" style="fill: #f58518; stroke: #ffffff; stroke-width: 2; stroke-linejoin: miter"/>
   </g>
   <g id="wedge-3-2">
    <path d="M 369.078737 267.950603 
C 365.801224 278.779782 364.888391 290.187821 366.402198 301.400386 
C 367.916005 312.61295 371.821409 323.37048 377.853325 332.942794 
L 402.761748 317.246952 
C 398.978092 311.242501 396.528338 304.494596 395.578769 297.46126 
C 394.629199 290.427924 395.201794 283.271973 397.257688 276.479124 
z
" clip-path="url(#p01e66a168f)" style="fill: #54a24b; stroke: #ffffff; stroke-width: 2; stroke-linejoin: miter"/>
   </g>
   <g id="wedge-3-3">
    <path d="M 392.624737 231.423275 
C 387.096997 236.26688 382.272225 241.858369 378.290208 248.035743 
C 374.30819 254.213118 371.207758 260.916139 369.078737 267.950603 
L 397.257688 276.479124 
C 398.593165 272.066596 400.537982 267.861974 403.035793 263.987075 
C 405.533604 260.112177 408.560051 256.604788 412.027452 253.566527 
z
" clip-path="url(#p01e66a168f)" style="fill: #e45756; stroke: #ffffff; stroke-width: 2; stroke-linejoin: miter"/>
   </g>
   <g id="wedge-3-4">
    <path d="M 418.42031 216.336248 
C 413.690978 218.003384 409.13113 220.117098 404.802545 222.648753 
C 400.47396 225.180407 396.396275 228.118517 392.624737 231.423275 
L 412.027452 253.566527 
C 414.393235 251.493543 416.951055 249.650547 419.666259 248.062509 
C 422.381462 246.474471 425.241731 245.148595 428.208311 244.102846 
z
" clip-path="url(#p01e66a168f)" style="fill: #72b7b2; stroke: #ffffff; stroke-width: 2; stroke-linejoin: miter"/>
   </g>
   <g id="wedge-3-5">
    <path d="M 444.680802 211.8432 
C 440.216464 211.8432 435.760152 212.221677 431.359757 212.974564 
C 426.959363 213.727451 422.630707 214.852041 418.42031 216.336248 
L 428.208311 244.102846 
C 430.849378 243.171844 433.564626 242.466419 436.324874 241.994154 
C 439.085121 241.521888 441.880444 241.28448 444.680802 241.28448 
z
" clip-path="url(#p01e66a168f)" style="fill: #eeca3b; stroke: #ffffff; stroke-width: 2; stroke-linejoin: miter"/>
   </g>
   <g id="legend-3-0-sw">
    <path d="M 535.158882 245.952 
L 546.648162 245.952 
L 546.648162 238.7712 
L 535.158882 238.7712 
z
" clip-path="url(#p01e66a168f)" style="fill: #4c78a8"/>
   </g>
   <g id="legend-3-1-sw">
    <path d="M 535.158882 265.34016 
L 546.648162 265.34016 
L 546.648162 258.15936 
L 535.158882 258.15936 
z
" clip-path="url(#p01e66a168f)" style="fill: #f58518"/>
   </g>
   <g id="legend-3-2-sw">
    <path d="M 535.158882 284.72832 
L 546.648162 284.72832 
L 546.648162 277.54752 
L 535.158882 277.54752 
z
" clip-path="url(#p01e66a168f)" style="fill: #54a24b"/>
   </g>
   <g id="legend-3-3-sw">
    <path d="M 535.158882 304.11648 
L 546.648162 304.11648 
L 546.648162 296.93568 
L 535.158882 296.93568 
z
" clip-path="url(#p01e66a168f)" style="fill: #e45756"/>
   </g>
   <g id="legend-3-4-sw">
    <path d="M 535.158882 323.50464 
L 546.648162 323.50464 
L 546.648162 316.32384 
L 535.158882 316.32384 
z
" clip-path="url(#p01e66a168f)" style="fill: #72b7b2"/>
   </g>
   <g id="legend-3-5-sw">
    <path d="M 535.158882 342.8928 
L 546.648162 342.8928 
L 546.648162 335.712 
L 535.158882 335.712 
z
" clip-path="url(#p01e66a168f)" style="fill: #eeca3b"/>
   </g>
   <g id="text_7">
    <text style="font-weight: 700; font-size: 11px; font-family: 'DejaVu Serif', 'Nimbus Roman', 'Times New Roman', 'Times', serif; text-anchor: middle; fill: #1a1a1a" x="444.680802" y="284.532272" transform="rotate(-0 444.680802 284.532272)">Spatial</text>
   </g>
   <g id="text_8">
    <text style="font-size: 9px; font-family: 'DejaVu Serif', 'Nimbus Roman', 'Times New Roman', 'Times', serif; text-anchor: middle; fill: #6a737d" x="444.680802" y="306.240877" transform="rotate(-0 444.680802 306.240877)">2.78M samples</text>
   </g>
   <g id="legend-3-0-lb">
    <text style="font-size: 10px; font-family: 'DejaVu Serif', 'Nimbus Roman', 'Times New Roman', 'Times', serif; text-anchor: start; fill: #1a1a1a" x="553.828962" y="245.120975" transform="rotate(-0 553.828962 245.120975)">CA-1M</text>
   </g>
   <g id="legend-3-0-pc">
    <text style="font-size: 10px; font-family: 'DejaVu Serif', 'Nimbus Roman', 'Times New Roman', 'Times', serif; text-anchor: end; fill: #6a737d" x="677.338722" y="245.120975" transform="rotate(-0 677.338722 245.120975)">37.7%</text>
   </g>
   <g id="legend-3-1-lb">
    <text style="font-size: 10px; font-family: 'DejaVu Serif', 'Nimbus Roman', 'Times New Roman', 'Times', serif; text-anchor: start; fill: #1a1a1a" x="553.828962" y="264.366947" transform="rotate(-0 553.828962 264.366947)">OSD Reasoning</text>
   </g>
   <g id="legend-3-1-pc">
    <text style="font-size: 10px; font-family: 'DejaVu Serif', 'Nimbus Roman', 'Times New Roman', 'Times', serif; text-anchor: end; fill: #6a737d" x="677.338722" y="264.509135" transform="rotate(-0 677.338722 264.509135)">28.3%</text>
   </g>
   <g id="legend-3-2-lb">
    <text style="font-size: 10px; font-family: 'DejaVu Serif', 'Nimbus Roman', 'Times New Roman', 'Times', serif; text-anchor: start; fill: #1a1a1a" x="553.828962" y="283.897295" transform="rotate(-0 553.828962 283.897295)">Crosspoint</text>
   </g>
   <g id="legend-3-2-pc">
    <text style="font-size: 10px; font-family: 'DejaVu Serif', 'Nimbus Roman', 'Times New Roman', 'Times', serif; text-anchor: end; fill: #6a737d" x="677.338722" y="283.897295" transform="rotate(-0 677.338722 283.897295)">13.6%</text>
   </g>
   <g id="legend-3-3-lb">
    <text style="font-size: 9.333333px; font-family: 'DejaVu Serif', 'Nimbus Roman', 'Times New Roman', 'Times', serif; text-anchor: start; fill: #1a1a1a" x="553.828962" y="303.101497" transform="rotate(-0 553.828962 303.101497)">RoboRefer (Sim)</text>
   </g>
   <g id="legend-3-3-pc">
    <text style="font-size: 10px; font-family: 'DejaVu Serif', 'Nimbus Roman', 'Times New Roman', 'Times', serif; text-anchor: end; fill: #6a737d" x="677.338722" y="303.285455" transform="rotate(-0 677.338722 303.285455)"> 8.9%</text>
   </g>
   <g id="legend-3-4-lb">
    <text style="font-size: 10px; font-family: 'DejaVu Serif', 'Nimbus Roman', 'Times New Roman', 'Times', serif; text-anchor: start; fill: #1a1a1a" x="553.828962" y="322.531427" transform="rotate(-0 553.828962 322.531427)">Pointing &amp; VG</text>
   </g>
   <g id="legend-3-4-pc">
    <text style="font-size: 10px; font-family: 'DejaVu Serif', 'Nimbus Roman', 'Times New Roman', 'Times', serif; text-anchor: end; fill: #6a737d" x="677.338722" y="322.673615" transform="rotate(-0 677.338722 322.673615)"> 6.1%</text>
   </g>
   <g id="legend-3-5-lb">
    <text style="font-size: 10px; font-family: 'DejaVu Serif', 'Nimbus Roman', 'Times New Roman', 'Times', serif; text-anchor: start; fill: #1a1a1a" x="553.828962" y="341.990681" transform="rotate(-0 553.828962 341.990681)">RefCOCO Family</text>
   </g>
   <g id="legend-3-5-pc">
    <text style="font-size: 10px; font-family: 'DejaVu Serif', 'Nimbus Roman', 'Times New Roman', 'Times', serif; text-anchor: end; fill: #6a737d" x="677.338722" y="342.061775" transform="rotate(-0 677.338722 342.061775)"> 5.4%</text>
   </g>
  </g></g>
 </g>
 </svg>
